<svg xmlns="http://www.w3.org/2000/svg" viewBox="0 0 128 128">
  <defs>
    <linearGradient id="glass" x1="24" y1="16" x2="104" y2="112" gradientUnits="userSpaceOnUse">
      <stop offset="0" stop-color="#ffffff"/>
      <stop offset="0.48" stop-color="#e8ecef"/>
      <stop offset="1" stop-color="#aeb6bf"/>
    </linearGradient>
    <linearGradient id="ink" x1="38" y1="32" x2="92" y2="98" gradientUnits="userSpaceOnUse">
      <stop offset="0" stop-color="#282b31"/>
      <stop offset="1" stop-color="#07080a"/>
    </linearGradient>
    <filter id="shadow" x="-20%" y="-20%" width="140%" height="140%">
      <feDropShadow dx="0" dy="12" stdDeviation="12" flood-color="#111318" flood-opacity="0.18"/>
    </filter>
  </defs>
  <rect width="128" height="128" rx="30" fill="#f6f4ef"/>
  <rect x="20" y="18" width="88" height="92" rx="24" fill="url(#glass)" stroke="#ffffff" stroke-opacity="0.76" filter="url(#shadow)"/>
  <path d="M40 39h32c13 0 22 8 22 20 0 9-5 15-13 18l14 20H77L65 80h-9v17H40V39Zm16 13v15h14c5 0 8-3 8-8s-3-7-8-7H56Z" fill="url(#ink)"/>
  <circle cx="86" cy="38" r="6" fill="#ffffff" fill-opacity="0.85"/>
</svg>
